<?xml version="1.0" encoding="UTF-8" standalone="no"?>
<!-- Created with Inkscape (http://www.inkscape.org/) -->

<svg
   version="1.1"
   id="svg132"
   width="512.20343"
   height="512.05804"
   viewBox="0 0 512.20343 512.05804"
   sodipodi:docname="tooth-extraction.png"
   inkscape:version="0.0"
   xmlns:inkscape="http://www.inkscape.org/namespaces/inkscape"
   xmlns:sodipodi="http://sodipodi.sourceforge.net/DTD/sodipodi-0.dtd"
   xmlns="http://www.w3.org/2000/svg"
   xmlns:svg="http://www.w3.org/2000/svg">
  <defs
     id="defs136" />
  <sodipodi:namedview
     id="namedview134"
     pagecolor="#ffffff"
     bordercolor="#000000"
     borderopacity="0.25"
     inkscape:showpageshadow="2"
     inkscape:pageopacity="0.0"
     inkscape:pagecheckerboard="0"
     inkscape:deskcolor="#d1d1d1"
     showgrid="false"
     inkscape:zoom="1.5898437"
     inkscape:cx="346.26044"
     inkscape:cy="243.42015"
     inkscape:window-width="1920"
     inkscape:window-height="1017"
     inkscape:window-x="-8"
     inkscape:window-y="-8"
     inkscape:window-maximized="1"
     inkscape:current-layer="g138" />
  <g
     inkscape:groupmode="layer"
     inkscape:label="Image"
     id="g138"
     transform="translate(0.10172749,-2.5159689)">
    <path
       style="display:inline;fill:#ff1d47;fill-opacity:1"
       d="M 63.999998,513.01995 C 32.047748,506.58974 7.5576577,481.84032 1.4236977,449.78104 c -2.10010999,-10.97632 -2.00757999,-60.60263 0.1283,-68.80497 3.12376,-11.99605 11.3757203,-21.8833 23.0091903,-27.56891 l 6.93881,-3.39119 20.75,-0.3224 c 11.4125,-0.17732 20.75,-0.69511 20.75,-1.15063 0,-0.45552 -0.88993,-6.03378 -1.97763,-12.39613 -1.74767,-10.22278 -2.56164,-12.59506 -7,-20.40124 -2.7623,-4.85833 -5.02237,-9.5368 -5.02237,-10.3966 0,-3.20552 3.98146,-6.833 7.49978,-6.833 4.03589,0 7.08869,3.3109 12.79357,13.8752 4.46232,8.26334 5.78919,14.07849 9.16601,40.17103 2.3414,18.0919 2.69737,19.61128 5.08491,21.70377 3.350936,2.93683 6.944552,2.85209 10.033242,-0.2366 l 2.48659,-2.4866 -0.28205,-24.2634 -0.28205,-24.2634 2.6636,-5 c 14.15327,-26.56791 57.33246,-23.65983 65.50052,4.41139 1.38641,4.7647 1.52479,8.79558 0.93862,27.34167 l -0.68753,21.75306 2.49694,2.49694 c 2.74609,2.74609 5.16531,3.10222 9.05,1.33223 3.32835,-1.5165 3.96149,-4.01551 7.05224,-27.83529 1.39162,-10.725 3.23574,-21.975 4.09803,-25 0.86228,-3.025 4.75826,-10.9 8.65772,-17.5 9.31323,-15.76303 15.02056,-27.97425 18.17556,-38.88788 2.94576,-10.18985 5.80069,-30.2596 5.35624,-37.65372 l -0.30194,-5.0234 -8,9.7123 c -15.08464,18.31332 -53.77872,55.34275 -62.59436,59.90149 -4.58934,2.37325 -8.99161,1.20533 -13.25832,-3.5174 -6.44079,-7.12919 -5.92449,-13.13338 2.07324,-24.11028 C 162.84121,243.31146 202,180.03321 202,176.10883 c 0,-1.67704 -12.42914,-3.99209 -21.5,-4.00458 -8.84006,-0.0122 -11.44993,0.4383 -22.5,3.88354 -15.90227,4.95808 -19.90143,4.97967 -35.39952,0.19107 -6.54474,-2.0222 -14.89064,-3.95471 -18.54646,-4.29449 -13.331662,-1.23904 -29.127792,3.677 -38.776092,12.06783 -5.8586,5.09505 -10.96592,15.78866 -12.94761,27.10952 -2.65243,15.15253 -0.32651,39.14222 5.836,60.19306 1.12167,3.83156 1.04365,4.50409 -0.81205,7 -1.4184,1.90772 -3.11372,2.85309 -5.48484,3.05851 -5.06195,0.43855 -7.17269,-2.52938 -10.168,-14.29732 -4.21609,-16.56415 -5.15502,-24.14813 -5.07599,-41 0.0842,-17.96647 1.7829,-26.63773 7.54194,-38.5 6.33039,-13.03911 20.9765,-24.10988 37.83262,-28.59709 8.78493,-2.3386 26.258542,-2.35456 35.000002,-0.032 l 6.5,1.72704 1.5,-2.28933 c 8.32092,-12.69955 37.46478,-44.04803 61,-65.614411 l 11.5,-10.53796 3.72323,-13.57814 c 2.04778,-7.46794 8.37833,-27.52307 11.76158,-40.723071 4.99235,-19.4780091 4.72246,-21.2789691 6.69555,-23.1050391 2.34194,-2.16742 3.12154,-2.25 21.24055,-2.25 17.51474,0 18.99073,0.14266 21.44423,2.07258 1.56032,1.22735 2.63486,3.06768 2.63486,4.51264 0,1.3420301 -2.04651,9.2968591 -4.5478,17.6774191 -2.50129,8.380551 -5.83911,20.053891 -7.41738,25.940761 l -2.86958,10.70339 4.23543,2.48213 C 258.70746,68.428839 272,81.744409 272,83.534719 c 0,2.29345 3.7868,0.19955 25.44442,-14.06944 27.30306,-17.98844 43.94417,-29.70876 67.99508,-47.888841 9.86672,-7.45826 19.72193,-14.7979691 21.90048,-16.3104691 l 3.96098,-2.75 h 47.89498 47.89497 l 2.45454,2.45455 c 2.59704,2.59703 3.09438,5.4814001 1.46887,8.5187001 -0.54213,1.012969 -12.35463,7.675579 -26.25,14.805799 -13.89538,7.130221 -32.79347,17.071841 -41.99575,22.092491 -9.20229,5.02065 -17.67441,9.12846 -18.82693,9.12846 -2.33388,0 -7.96141,-5.1057 -7.9062,-7.17308 0.11146,-4.17406 3.58223,-6.67766 25.60849,-18.472391 C 434.21477,27.138998 446.075,20.725358 448,19.617958 l 3.5,-2.01346 -27.71466,-0.0443 -27.71467,-0.0443 -18.28533,13.82444 c -29.5463,22.338171 -61.76508,44.759421 -88.53534,61.612271 -5.69998,3.58835 -9.21968,6.44496 -9.171,7.443251 0.0435,0.89102 0.60797,4.62932 1.25449,8.30733 l 1.17549,6.68731 14.49551,-9.02032 c 40.09488,-24.950351 72.79137,-43.854281 75.85094,-43.854281 6.13238,0 9.38276,7.13644 5.39457,11.84416 -0.9625,1.13615 -10.63807,7.26673 -21.50127,13.62351 -18.95372,11.09109 -53.37366,32.120941 -68.40918,41.796551 -6.82502,4.39202 -7.23944,4.8796 -8.84677,10.40863 -0.92748,3.19041 -2.37298,7.15669 -3.21222,8.81395 -2.03777,4.02403 -13.47157,22.64893 -24.92359,40.59885 l -9.30561,14.58566 0.96853,5.91434 c 4.26979,26.07355 -4.48548,68.16449 -19.43097,93.41435 -11.95941,20.20498 -12.41576,21.18268 -13.96795,29.92543 -0.83729,4.71601 -1.65703,10.14957 -1.82166,12.07457 l -0.29931,3.5 33.36918,0.26363 33.36918,0.26363 -0.53824,-2.26363 c -0.29603,-1.245 -1.9003,-6.08863 -3.56505,-10.76363 -5.95193,-16.71447 -7.57318,-27.2918 -7.58712,-49.5 -0.0141,-22.42953 0.8714,-27.46037 7.05503,-40.08242 6.20758,-12.67098 18.77879,-22.75593 34.39702,-27.5942 6.35012,-1.96717 9.64644,-2.3215 21.5,-2.31114 13.3648,0.0117 14.5396,0.18183 25.89293,3.75 6.5411,2.05577 12.89557,3.73776 14.12104,3.73776 1.22547,0 7.34865,-1.61195 13.60708,-3.5821 21.26951,-6.69566 41.6944,-5.72346 58.87895,2.80254 9.09692,4.51338 19.69318,15.19427 23.94359,24.13483 5.51693,11.6046 7.33553,23.2462 6.73987,43.14473 -0.56094,18.73909 -2.5508,30.31153 -7.78635,45.28317 -5.05626,14.45896 -5.93805,12.94471 7.77919,13.35867 11.13238,0.33596 12.29864,0.57015 18.81312,3.77776 11.65077,5.73662 19.83844,15.55834 22.95858,27.5405 2.13588,8.20234 2.22842,57.82865 0.1283,68.80497 -6.20934,32.45329 -30.8668,57.07641 -63.41427,63.32594 -10.47283,2.01092 -373.146472,1.92854 -383.162032,-0.087 z M 445.79216,497.94296 c 25.26461,-5.15599 44.53771,-24.6146 49.72213,-50.20074 1.29656,-6.39881 1.54573,-13.19269 1.29551,-35.3244 -0.28824,-25.49507 -0.45761,-27.71499 -2.43396,-31.90185 -2.7963,-5.92393 -7.71606,-10.76072 -13.87584,-13.64182 -4.4737,-2.09248 -6.44248,-2.33967 -18.70405,-2.34841 l -13.70406,-0.01 -5.5127,9.25 c -6.17023,10.35329 -7.35838,14.69941 -10.04682,36.75 -3.08338,25.28986 -3.82778,27.99656 -9.18952,33.41391 -8.35516,8.44182 -23.22767,8.80937 -31.68443,0.78304 -1.56287,-1.48332 -3.76432,-4.49187 -4.89211,-6.68567 -1.89867,-3.69331 -2.05852,-5.86471 -2.15842,-29.32012 L 384.5,383.3755 l -4.05392,-3.7831 c -8.28091,-7.7277 -21.59049,-7.74631 -29.84818,-0.0417 l -4.0979,3.82343 -0.13689,25.38894 c -0.12595,23.36058 -0.29838,25.70305 -2.15841,29.32082 -6.72333,13.07689 -23.30601,16.57675 -34.9913,7.3851 -6.26535,-4.92833 -7.34688,-8.21408 -10.18841,-30.95322 -3.28254,-26.26832 -4.30488,-30.19891 -10.59895,-40.75 l -5.51793,-9.25 h -23.98544 c -21.96293,0 -24.03274,0.14756 -24.54634,1.75 -2.06914,6.45569 -6.57137,15.6077 -13.59539,27.63632 -4.45984,7.63748 -8.70565,15.61867 -9.43512,17.73597 -0.72947,2.1173 -2.4518,12.51846 -3.82741,23.11368 -3.20385,24.67667 -4.02803,28.4436 -7.23714,33.07726 -4.18515,6.04298 -10.468,9.18677 -18.35969,9.18677 -5.57715,0 -7.32349,-0.46064 -11.47356,-3.02644 -3.04967,-1.88546 -6.03612,-4.87821 -7.92158,-7.93827 L 159.5,461.13922 159.76203,437.0775 c 0.25491,-23.40824 0.20059,-24.16836 -2,-27.98777 -7.35988,-12.77403 -31.51681,-10.92583 -36.7214,2.80948 -0.74353,1.96223 -0.88371,9.62986 -0.43876,24 0.73373,23.69654 0.18143,27.5159 -4.79927,33.1886 -11.1387,12.68628 -31.205582,9.94767 -37.940462,-5.17787 -1.10423,-2.47995 -2.83484,-11.98383 -4.37028,-24 -1.39815,-10.9418 -3.18688,-22.44422 -3.97496,-25.56094 -0.80423,-3.18038 -4.31041,-10.51426 -7.99165,-16.71593 -7.75279,-13.06085 -15.52525,-28.72794 -15.52525,-31.29452 0,-1.51611 -0.82607,-1.82258 -4.91263,-1.82258 -10.45688,0 -22.10935,9.21753 -25.05367,19.81838 -1.64595,5.92616 -1.28954,56.28536 0.45777,64.68162 4.85821,23.34482 25.25743,43.88713 48.61253,48.95352 5.31654,1.15331 37.330522,1.4009 189.688162,1.46698 162.98081,0.0707 184.14629,-0.0948 191,-1.49351 z M 101.53212,461.067 c 1.90733,-0.79694 3.56289,-2.03444 3.67901,-2.75 0.11613,-0.71557 0.22863,-12.10103 0.25,-25.30103 l 0.0389,-24 2.79009,-5.6816 c 4.55865,-9.28305 13.37995,-15.47241 25.43087,-17.84328 14.77279,-2.90637 30.69759,4.32346 37.81089,17.16608 l 2.96812,5.3588 0.0316,24.86379 0.0316,24.86378 2.85911,2.4593 c 2.1246,1.82751 3.52943,2.29588 5.46837,1.82317 5.37751,-1.31104 5.93659,-2.83215 8.63168,-23.48485 4.18526,-32.07202 4.11607,-31.85601 17.46399,-54.52519 2.91462,-4.95 6.35436,-11.3625 7.64385,-14.25 l 2.34453,-5.25 h -6.84749 -6.84748 l -0.55448,5.3724 c -0.98177,9.51291 -5.36414,15.75299 -13.72528,19.54357 -15.12639,6.85765 -31.96932,-4.28482 -31.99442,-21.16597 l -0.006,-3.75 h -19 -19 l -0.022,4.75 c -0.0777,16.81593 -17.99224,27.34733 -33.096772,19.45663 -7.06376,-3.69015 -10.66263,-8.88276 -12.14195,-17.51897 l -1.1455,-6.68766 h -7.656232 -5.962688 l 3.64111,7.25 c 2.00261,3.9875 6.78986,12.57922 10.63834,19.0927 3.84848,6.51349 7.62299,13.92197 8.38782,16.46328 0.76482,2.54132 2.77273,14.753 4.46202,27.13707 1.68928,12.38408 3.51134,23.33848 4.04901,24.34313 0.77558,1.44919 3.396426,3.14883 5.628956,3.65043 0.15517,0.0349 1.84268,-0.58865 3.750006,-1.38558 z M 329,433.51597 c 1.88945,-1.88945 2.00054,-3.34039 2.00977,-26.25 0.009,-23.41956 0.0911,-24.42472 2.3855,-29.35217 3.20166,-6.87593 8.59011,-12.02125 16.51613,-15.77092 5.85593,-2.77034 7.58942,-3.11695 15.5886,-3.11695 8.00502,0 9.71859,0.34323 15.5,3.10468 7.91977,3.78282 13.46421,9.05126 16.63204,15.80411 2.29517,4.89259 2.38211,5.91664 2.3414,27.58125 -0.0232,12.375 -0.0268,23.2875 -0.008,24.25 0.0575,2.92219 3.72715,5.75 7.46184,5.75 5.65962,0 7.01813,-2.8121 9.03438,-18.701 4.34612,-34.24917 5.54414,-38.47064 15.56298,-54.83948 11.08367,-18.10859 17.71797,-35.54506 20.40204,-53.62135 2.02946,-13.6677 2.07072,-35.5078 0.0815,-43.14487 -5.67413,-21.78503 -22.11592,-33.6933 -46.5203,-33.6933 -8.36752,0 -11.42079,0.53128 -22.98788,4 -7.33631,2.2 -15.1928,4 -17.45886,4 -2.26606,0 -10.10397,-1.8 -17.41759,-4 -11.57442,-3.48169 -14.55846,-4 -23.02901,-4 -24.49256,0 -40.9205,11.8772 -46.60287,33.6933 -1.78682,6.86006 -2.01267,29.41616 -0.40991,40.93953 2.62856,18.89869 8.29507,34.54457 19.14703,52.86717 12.36138,20.87114 12.816,22.3892 17.30941,57.799 2.01625,15.8889 3.37476,18.701 9.03438,18.701 2.09409,0 4.20546,-0.77804 5.42742,-2 z m -169.21563,-95.3027 c 0.25314,-9.61675 0.0406,-11.2364 -1.93595,-14.75321 -7.2821,-12.95675 -31.56742,-11.39128 -36.78181,2.37101 -1.17096,3.0905 -1.481,21.93718 -0.37901,23.03917 0.37818,0.37818 9.26568,0.56568 19.75,0.41667 L 159.5,349.01597 Z m 30.7313,-94.83753 c 23.39158,-23.96586 34.83513,-39.57047 63.8872,-87.11765 11.36168,-18.59474 12.05696,-20.66837 11.98425,-35.74211 -0.0494,-10.23217 -0.4536,-13.57393 -2.22809,-18.41928 -4.4383,-12.119051 -11.62592,-20.352961 -23.10969,-26.473741 -9.12592,-4.86407 -9.15249,-3.87677 1.06923,-39.72778 C 244.80336,26.478738 247,18.491238 247,18.145178 c 0,-0.34607 -3.75855,-0.62921 -8.35234,-0.62921 h -8.35234 l -3.76384,14.75 c -2.07011,8.112501 -6.20532,23.686401 -9.18935,34.608681 -4.88301,17.87302 -5.30987,20.22276 -4.269,23.5 0.63608,2.00272 5.15483,13.794361 10.04169,26.203651 4.88685,12.40926 8.88518,23.62329 8.88518,24.92005 0,3.81984 -10.57695,29.22363 -19.57594,47.01762 -8.432,16.67286 -22.40033,39.62993 -41.37365,67.99795 l -10.36546,15.49796 7.90752,-7.13819 c 4.34914,-3.926 14.21458,-13.60008 21.9232,-21.49795 z m -35.87412,-82.18208 c 11.05548,-3.24065 11.20513,-3.32569 19.37189,-11.00839 4.52669,-4.25838 13.91299,-12.29707 20.85845,-17.86374 6.94546,-5.56667 12.75266,-10.42384 12.90488,-10.7937 0.33694,-0.81868 -6.64367,-19.18544 -7.72251,-20.31879 -1.78607,-1.876311 -60.01775,58.78821 -60.0482,62.55693 -0.0108,1.33469 3.27981,0.75634 14.63549,-2.57231 z m 58.20184,-9.89047 c 3.86264,-9.86398 4.06413,-11.76749 1.55303,-14.67202 -0.29957,-0.34649 -13.52291,10.08735 -22.35435,17.63865 l -3.45794,2.9567 4.75342,0.71282 c 2.61437,0.39205 6.42044,1.32547 8.45793,2.07426 6.604,2.42703 6.72349,2.33283 11.04791,-8.71041 z"
       id="path2967"
       inkscape:label="path2967"
       sodipodi:nodetypes="sssscsssssssssscccssscssssssscssssssssssssssssssscsscsssssssscssssscccsssssssscccsssscsssssssscsssscccssssssssssssssssssssssssccsssssscsscssssscssssssssscssssssssssssssssscscssscccssssscccssscccsssccccssssssscsssssscsssscsssssssssssssssscssssssssscssssssscsssssssssssscsssss" />
  </g>
</svg>
